<?xml version="1.0" encoding="UTF-8" standalone="no"?>
<!DOCTYPE svg PUBLIC "-//W3C//DTD SVG 1.1//EN" "http://www.w3.org/Graphics/SVG/1.1/DTD/svg11.dtd">
<svg width="100%" height="100%" viewBox="0 0 14 10" version="1.1" xmlns="http://www.w3.org/2000/svg" xmlns:xlink="http://www.w3.org/1999/xlink" xml:space="preserve" xmlns:serif="http://www.serif.com/" style="fill-rule:evenodd;clip-rule:evenodd;stroke-linejoin:round;stroke-miterlimit:1.41421;">
    <g transform="matrix(1,0,0,1,-0.667192,-0.729594)">
        <path d="M4.648,2.949C4.683,2.956 4.718,2.964 4.752,2.974L6.581,1.54C6.724,1.428 6.909,1.392 7.08,1.438L7.095,1.442L7.114,1.448C7.126,1.452 7.138,1.456 7.15,1.461L7.153,1.463C7.163,1.467 7.174,1.471 7.184,1.476C7.38,1.572 7.505,1.771 7.505,1.99L7.505,9.392L7.505,9.392L7.505,9.392C7.505,9.611 7.38,9.81 7.183,9.906C7.104,9.944 7.019,9.963 6.933,9.963L6.933,9.963C6.933,9.963 6.932,9.963 6.932,9.963L6.931,9.963C6.931,9.963 6.93,9.963 6.93,9.963L6.93,9.963L6.929,9.963C6.921,9.963 6.912,9.963 6.903,9.963L6.903,9.963L6.902,9.963C6.877,9.961 6.852,9.958 6.827,9.953L6.826,9.953L6.826,9.953L6.826,9.953L6.825,9.953L6.825,9.953L6.825,9.953L6.814,9.951L6.813,9.951C6.812,9.95 6.81,9.95 6.809,9.95L6.808,9.95L6.808,9.95L6.808,9.949L6.808,9.949L6.807,9.949L6.794,9.946C6.791,9.945 6.788,9.945 6.785,9.944L6.785,9.944L6.785,9.944L6.765,9.938L6.765,9.938L6.765,9.938C6.759,9.936 6.754,9.934 6.748,9.932L6.747,9.932L6.747,9.932L6.733,9.927C6.679,9.907 6.628,9.878 6.581,9.842L4.708,8.375C4.623,8.396 4.535,8.408 4.438,8.409L2.561,8.409C2.56,8.409 2.559,8.409 2.558,8.409L2.557,8.409C2.545,8.409 2.533,8.409 2.52,8.408C2.52,8.408 2.519,8.408 2.518,8.408L2.518,8.408C2.517,8.408 2.516,8.408 2.515,8.408L2.515,8.408L2.514,8.408L2.513,8.408C2.513,8.408 2.513,8.408 2.512,8.408L2.511,8.408L2.499,8.407C2.49,8.407 2.481,8.406 2.472,8.405L2.472,8.405L2.472,8.405L2.448,8.403C2.445,8.403 2.442,8.403 2.439,8.402L2.439,8.402L2.438,8.402C2.425,8.401 2.411,8.399 2.397,8.397L2.397,8.397L2.397,8.397C2.372,8.393 2.348,8.389 2.324,8.384L2.323,8.384L2.322,8.383C2.313,8.381 2.304,8.379 2.295,8.377L2.295,8.377L2.294,8.377C2.29,8.376 2.285,8.375 2.281,8.374L2.28,8.373C2.277,8.372 2.273,8.371 2.27,8.37L2.269,8.37L2.263,8.369L2.262,8.368C2.262,8.368 2.262,8.368 2.261,8.368L2.261,8.368C2.258,8.367 2.255,8.367 2.252,8.366L2.252,8.366L2.252,8.366C2.251,8.365 2.25,8.365 2.25,8.365L2.25,8.365L2.25,8.365C2.248,8.364 2.246,8.364 2.244,8.363L2.243,8.363L2.243,8.363L2.242,8.363L2.242,8.363L2.241,8.363L2.241,8.363C2.238,8.361 2.234,8.36 2.23,8.359L2.23,8.359L2.229,8.359C2.222,8.357 2.216,8.354 2.209,8.352L2.209,8.352L2.209,8.352C2.199,8.349 2.19,8.346 2.181,8.342L2.18,8.342L2.179,8.342C2.178,8.341 2.177,8.341 2.175,8.34L2.175,8.34L2.174,8.34C2.173,8.34 2.173,8.34 2.172,8.339L2.172,8.339L2.172,8.339L2.171,8.339L2.17,8.339L2.17,8.339L2.17,8.338L2.161,8.335L2.161,8.335L2.16,8.335L2.15,8.331L2.15,8.331L2.149,8.331C2.149,8.33 2.148,8.33 2.147,8.33L2.147,8.33L2.147,8.329L2.146,8.329L2.142,8.328L2.142,8.327L2.141,8.327L2.127,8.322L2.127,8.321C2.123,8.32 2.12,8.318 2.116,8.317L2.116,8.317L2.115,8.316L2.096,8.308C2.093,8.307 2.091,8.305 2.088,8.304L2.088,8.304L2.088,8.304C2.084,8.302 2.08,8.3 2.077,8.299L2.076,8.298C2.075,8.298 2.074,8.297 2.074,8.297C2.056,8.288 2.038,8.279 2.021,8.27L2.021,8.27L2.021,8.27C2.017,8.268 2.013,8.266 2.01,8.263L2.009,8.263L2.009,8.263L2.009,8.263L2.008,8.263L2.008,8.262L2.007,8.262C2.007,8.262 2.006,8.261 2.005,8.261L2.005,8.261C1.999,8.257 1.993,8.254 1.987,8.25L1.987,8.25L1.986,8.25L1.96,8.233L1.959,8.233L1.953,8.229L1.933,8.216C1.639,8.015 1.446,7.677 1.446,7.294L1.446,4.043C1.446,3.428 1.945,2.929 2.561,2.929L4.438,2.929C4.469,2.929 4.501,2.93 4.532,2.933L4.556,2.935L4.573,2.937L4.596,2.94L4.627,2.945L4.648,2.949ZM12.254,1.427C13.326,2.541 13.987,4.054 13.987,5.718C13.987,7.356 13.347,8.846 12.306,9.955L11.685,9.333C12.567,8.384 13.108,7.113 13.108,5.718C13.108,5.286 13.056,4.865 12.958,4.462L12.958,4.462L12.958,4.462C12.733,3.541 12.268,2.713 11.632,2.048L12.254,1.427ZM10.761,2.901L10.801,2.945C11.474,3.675 11.887,4.649 11.887,5.718C11.887,6.781 11.48,7.751 10.813,8.48L10.191,7.858C10.699,7.289 11.008,6.539 11.008,5.718C11.008,4.87 10.678,4.098 10.139,3.523L10.761,2.901ZM9.328,4.334C9.659,4.701 9.863,5.186 9.863,5.718C9.863,6.223 9.681,6.686 9.379,7.046L8.753,6.42C8.898,6.223 8.984,5.981 8.984,5.718C8.984,5.428 8.88,5.162 8.707,4.955L9.328,4.334ZM0,0.022L0,0L0.017,0L0,0.022Z" style="fill:white;"/>
    </g>
</svg>
