<?xml version="1.0" encoding="UTF-8" standalone="no"?><!DOCTYPE svg PUBLIC "-//W3C//DTD SVG 1.1//EN" "http://www.w3.org/Graphics/SVG/1.1/DTD/svg11.dtd"><svg width="100%" height="100%" viewBox="0 0 15 12" version="1.1" xmlns="http://www.w3.org/2000/svg" xmlns:xlink="http://www.w3.org/1999/xlink" xml:space="preserve" xmlns:serif="http://www.serif.com/" style="fill-rule:evenodd;clip-rule:evenodd;stroke-linejoin:round;stroke-miterlimit:1.41421;"><g><path d="M1.44,3.633c0.189,0.134 0.761,0.531 1.716,1.193c0.954,0.661 1.685,1.17 2.193,1.527c0.056,0.039 0.174,0.124 0.355,0.255c0.182,0.132 0.332,0.238 0.452,0.319c0.12,0.08 0.265,0.171 0.436,0.272c0.17,0.1 0.33,0.175 0.481,0.225c0.151,0.051 0.29,0.076 0.419,0.076l0.016,0c0.129,0 0.268,-0.025 0.419,-0.076c0.151,-0.05 0.311,-0.125 0.481,-0.225c0.17,-0.101 0.316,-0.192 0.436,-0.272c0.12,-0.081 0.27,-0.187 0.452,-0.319c0.181,-0.131 0.3,-0.216 0.355,-0.255c0.514,-0.357 1.82,-1.264 3.918,-2.72c0.407,-0.285 0.747,-0.628 1.021,-1.03c0.273,-0.402 0.41,-0.823 0.41,-1.264c0,-0.368 -0.133,-0.683 -0.398,-0.946c-0.265,-0.262 -0.579,-0.393 -0.941,-0.393l-12.322,0c-0.429,0 -0.76,0.145 -0.992,0.435c-0.231,0.29 -0.347,0.653 -0.347,1.088c0,0.352 0.154,0.733 0.46,1.143c0.307,0.41 0.634,0.732 0.98,0.967Z" style="fill:#fff;fill-rule:nonzero;"/><path d="M14.163,4.528c-1.83,1.239 -3.22,2.202 -4.169,2.888c-0.318,0.235 -0.576,0.417 -0.774,0.548c-0.198,0.132 -0.462,0.266 -0.791,0.402c-0.329,0.137 -0.636,0.205 -0.92,0.205l-0.009,0l-0.008,0c-0.285,0 -0.592,-0.068 -0.921,-0.205c-0.329,-0.136 -0.593,-0.27 -0.791,-0.402c-0.198,-0.131 -0.456,-0.313 -0.774,-0.548c-0.754,-0.552 -2.14,-1.515 -4.16,-2.888c-0.319,-0.212 -0.6,-0.454 -0.846,-0.728l0,6.646c0,0.369 0.131,0.684 0.393,0.946c0.263,0.262 0.578,0.394 0.946,0.394l12.322,0c0.368,0 0.683,-0.132 0.946,-0.394c0.262,-0.262 0.393,-0.577 0.393,-0.946l0,-6.646c-0.24,0.268 -0.519,0.511 -0.837,0.728Z" style="fill:#fff;fill-rule:nonzero;"/></g></svg>