<?xml version="1.0" encoding="UTF-8" standalone="no"?><!DOCTYPE svg PUBLIC "-//W3C//DTD SVG 1.1//EN" "http://www.w3.org/Graphics/SVG/1.1/DTD/svg11.dtd"><svg width="100%" height="100%" viewBox="0 0 15 15" version="1.1" xmlns="http://www.w3.org/2000/svg" xmlns:xlink="http://www.w3.org/1999/xlink" xml:space="preserve" xmlns:serif="http://www.serif.com/" style="fill-rule:evenodd;clip-rule:evenodd;stroke-linejoin:round;stroke-miterlimit:1.41421;"><path d="M14.993,11.83c0.032,0.244 -0.043,0.455 -0.222,0.635l-2.112,2.096c-0.096,0.106 -0.22,0.196 -0.374,0.27c-0.153,0.074 -0.304,0.122 -0.452,0.143c-0.011,0 -0.042,0.003 -0.095,0.008c-0.053,0.006 -0.122,0.008 -0.207,0.008c-0.201,0 -0.527,-0.034 -0.976,-0.103c-0.45,-0.069 -1.001,-0.238 -1.652,-0.508c-0.651,-0.27 -1.389,-0.675 -2.215,-1.215c-0.826,-0.54 -1.704,-1.281 -2.636,-2.223c-0.741,-0.731 -1.355,-1.429 -1.842,-2.096c-0.487,-0.667 -0.879,-1.284 -1.175,-1.85c-0.297,-0.566 -0.519,-1.08 -0.667,-1.54c-0.148,-0.461 -0.249,-0.858 -0.302,-1.191c-0.053,-0.334 -0.074,-0.596 -0.063,-0.786c0.01,-0.191 0.016,-0.297 0.016,-0.318c0.021,-0.148 0.068,-0.299 0.142,-0.453c0.075,-0.153 0.165,-0.277 0.27,-0.373l2.112,-2.112c0.149,-0.148 0.318,-0.222 0.509,-0.222c0.137,0 0.259,0.04 0.365,0.119c0.106,0.079 0.196,0.177 0.27,0.294l1.699,3.223c0.095,0.17 0.122,0.355 0.079,0.556c-0.042,0.201 -0.132,0.371 -0.27,0.508l-0.778,0.778c-0.021,0.022 -0.04,0.056 -0.055,0.104c-0.016,0.047 -0.024,0.087 -0.024,0.119c0.042,0.222 0.137,0.476 0.286,0.762c0.127,0.254 0.322,0.564 0.587,0.929c0.265,0.365 0.641,0.786 1.128,1.262c0.476,0.487 0.899,0.866 1.27,1.136c0.37,0.27 0.68,0.468 0.929,0.595c0.249,0.127 0.439,0.204 0.572,0.23l0.198,0.04c0.021,0 0.056,-0.008 0.103,-0.024c0.048,-0.016 0.082,-0.034 0.103,-0.055l0.906,-0.921c0.19,-0.17 0.412,-0.254 0.667,-0.254c0.18,0 0.322,0.031 0.428,0.095l0.016,0l3.065,1.81c0.222,0.138 0.354,0.312 0.397,0.524Z" style="fill:#fff;fill-rule:nonzero;"/></svg>